<mxfile host="app.diagrams.net" modified="2020-12-10T18:17:27.679Z" agent="5.0 (Macintosh; Intel Mac OS X 10_15_7) AppleWebKit/537.36 (KHTML, like Gecko) Chrome/86.0.4240.198 Safari/537.36 OPR/72.0.3815.400" etag="Yd4YEJ1wCbg4dfLV-vWG" version="14.0.0" type="github">
  <diagram name="Page-1" id="c4acf3e9-155e-7222-9cf6-157b1a14988f">
    <mxGraphModel dx="1397" dy="721" grid="1" gridSize="10" guides="1" tooltips="1" connect="1" arrows="1" fold="1" page="1" pageScale="1" pageWidth="827" pageHeight="1169" background="#ffffff" math="0" shadow="0">
      <root>
        <mxCell id="0" />
        <mxCell id="1" parent="0" />
        <mxCell id="EH1okrl17HNzEjOL1Jwx-2" value="&lt;font style=&quot;font-size: 21px&quot;&gt;MIPS CPU&lt;/font&gt;" style="text;html=1;resizable=0;autosize=1;align=center;verticalAlign=middle;points=[];fillColor=none;strokeColor=none;rounded=0;fontStyle=1" vertex="1" parent="1">
          <mxGeometry x="680" y="1080" width="120" height="20" as="geometry" />
        </mxCell>
        <mxCell id="EH1okrl17HNzEjOL1Jwx-3" value="" style="rounded=0;whiteSpace=wrap;html=1;fillColor=none;" vertex="1" parent="1">
          <mxGeometry x="184" y="91" width="425" height="250" as="geometry" />
        </mxCell>
        <mxCell id="EH1okrl17HNzEjOL1Jwx-4" value="MASTER CONTROL BLOCK" style="text;html=1;strokeColor=none;fillColor=none;align=center;verticalAlign=middle;whiteSpace=wrap;rounded=0;fontStyle=1" vertex="1" parent="1">
          <mxGeometry x="444" y="341" width="170" height="20" as="geometry" />
        </mxCell>
        <mxCell id="EH1okrl17HNzEjOL1Jwx-6" value="" style="shape=trapezoid;perimeter=trapezoidPerimeter;whiteSpace=wrap;html=1;fixedSize=1;fillColor=none;rotation=90;" vertex="1" parent="1">
          <mxGeometry x="336.5" y="710" width="120" height="60" as="geometry" />
        </mxCell>
        <mxCell id="EH1okrl17HNzEjOL1Jwx-7" value="&lt;b&gt;ALU&lt;/b&gt;" style="text;html=1;strokeColor=none;fillColor=none;align=center;verticalAlign=middle;whiteSpace=wrap;rounded=0;" vertex="1" parent="1">
          <mxGeometry x="394" y="790" width="40" height="20" as="geometry" />
        </mxCell>
        <mxCell id="EH1okrl17HNzEjOL1Jwx-10" value="REGISTERS" style="text;html=1;strokeColor=none;fillColor=none;align=center;verticalAlign=middle;whiteSpace=wrap;rounded=0;fontStyle=1" vertex="1" parent="1">
          <mxGeometry x="480" y="610" width="90" height="20" as="geometry" />
        </mxCell>
        <mxCell id="EH1okrl17HNzEjOL1Jwx-12" value="" style="rounded=0;whiteSpace=wrap;html=1;fillColor=none;" vertex="1" parent="1">
          <mxGeometry x="337" y="790" width="124" height="80" as="geometry" />
        </mxCell>
        <mxCell id="EH1okrl17HNzEjOL1Jwx-13" value="MULTIPLIER" style="text;html=1;strokeColor=none;fillColor=none;align=center;verticalAlign=middle;whiteSpace=wrap;rounded=0;fontStyle=1" vertex="1" parent="1">
          <mxGeometry x="380" y="870" width="90" height="20" as="geometry" />
        </mxCell>
        <mxCell id="EH1okrl17HNzEjOL1Jwx-70" value="" style="group" vertex="1" connectable="0" parent="1">
          <mxGeometry x="240" y="400" width="320" height="200" as="geometry" />
        </mxCell>
        <mxCell id="EH1okrl17HNzEjOL1Jwx-67" value="" style="rounded=0;whiteSpace=wrap;html=1;glass=1;gradientColor=none;fontSize=9;fontColor=#67AB9F;fillColor=none;" vertex="1" parent="EH1okrl17HNzEjOL1Jwx-70">
          <mxGeometry width="320" height="200" as="geometry" />
        </mxCell>
        <mxCell id="EH1okrl17HNzEjOL1Jwx-69" value="" style="group" vertex="1" connectable="0" parent="EH1okrl17HNzEjOL1Jwx-70">
          <mxGeometry x="35" y="30" width="259" height="141" as="geometry" />
        </mxCell>
        <mxCell id="EH1okrl17HNzEjOL1Jwx-9" value="" style="rounded=0;whiteSpace=wrap;html=1;fillColor=none;" vertex="1" parent="EH1okrl17HNzEjOL1Jwx-69">
          <mxGeometry x="5" width="250" height="141" as="geometry" />
        </mxCell>
        <mxCell id="EH1okrl17HNzEjOL1Jwx-20" value="" style="endArrow=none;html=1;entryX=1;entryY=0.75;entryDx=0;entryDy=0;exitX=0;exitY=0.75;exitDx=0;exitDy=0;" edge="1" parent="EH1okrl17HNzEjOL1Jwx-69" source="EH1okrl17HNzEjOL1Jwx-9" target="EH1okrl17HNzEjOL1Jwx-9">
          <mxGeometry width="50" height="50" as="geometry">
            <mxPoint x="137.5" y="70" as="sourcePoint" />
            <mxPoint x="187.5" y="20" as="targetPoint" />
            <Array as="points">
              <mxPoint x="170" y="106" />
            </Array>
          </mxGeometry>
        </mxCell>
        <mxCell id="EH1okrl17HNzEjOL1Jwx-21" value="" style="endArrow=none;html=1;entryX=1;entryY=0.75;entryDx=0;entryDy=0;exitX=0;exitY=0.75;exitDx=0;exitDy=0;" edge="1" parent="EH1okrl17HNzEjOL1Jwx-69">
          <mxGeometry width="50" height="50" as="geometry">
            <mxPoint x="5" y="70.20999999999998" as="sourcePoint" />
            <mxPoint x="255" y="70.20999999999998" as="targetPoint" />
          </mxGeometry>
        </mxCell>
        <mxCell id="EH1okrl17HNzEjOL1Jwx-22" value="" style="endArrow=none;html=1;entryX=1;entryY=0.25;entryDx=0;entryDy=0;exitX=0;exitY=0.25;exitDx=0;exitDy=0;" edge="1" parent="EH1okrl17HNzEjOL1Jwx-69" source="EH1okrl17HNzEjOL1Jwx-9" target="EH1okrl17HNzEjOL1Jwx-9">
          <mxGeometry width="50" height="50" as="geometry">
            <mxPoint x="5" y="40.00000000000006" as="sourcePoint" />
            <mxPoint x="255" y="40.00000000000006" as="targetPoint" />
          </mxGeometry>
        </mxCell>
        <mxCell id="EH1okrl17HNzEjOL1Jwx-23" value="" style="endArrow=none;html=1;entryX=0.75;entryY=0;entryDx=0;entryDy=0;exitX=0.75;exitY=1;exitDx=0;exitDy=0;" edge="1" parent="EH1okrl17HNzEjOL1Jwx-69" source="EH1okrl17HNzEjOL1Jwx-9" target="EH1okrl17HNzEjOL1Jwx-9">
          <mxGeometry width="50" height="50" as="geometry">
            <mxPoint x="351" y="40" as="sourcePoint" />
            <mxPoint x="401" y="-10" as="targetPoint" />
          </mxGeometry>
        </mxCell>
        <mxCell id="EH1okrl17HNzEjOL1Jwx-24" value="" style="endArrow=none;html=1;exitX=0.75;exitY=1;exitDx=0;exitDy=0;" edge="1" parent="EH1okrl17HNzEjOL1Jwx-69" target="EH1okrl17HNzEjOL1Jwx-9">
          <mxGeometry width="50" height="50" as="geometry">
            <mxPoint x="131" y="141" as="sourcePoint" />
            <mxPoint x="131" as="targetPoint" />
          </mxGeometry>
        </mxCell>
        <mxCell id="EH1okrl17HNzEjOL1Jwx-25" value="" style="endArrow=none;html=1;entryX=0.5;entryY=0;entryDx=0;entryDy=0;exitX=0.5;exitY=1;exitDx=0;exitDy=0;" edge="1" parent="EH1okrl17HNzEjOL1Jwx-69" source="EH1okrl17HNzEjOL1Jwx-9" target="EH1okrl17HNzEjOL1Jwx-9">
          <mxGeometry width="50" height="50" as="geometry">
            <mxPoint x="202.5" y="151" as="sourcePoint" />
            <mxPoint x="202.5" y="10" as="targetPoint" />
          </mxGeometry>
        </mxCell>
        <mxCell id="EH1okrl17HNzEjOL1Jwx-26" value="" style="endArrow=none;html=1;entryX=0.25;entryY=0;entryDx=0;entryDy=0;exitX=0.25;exitY=1;exitDx=0;exitDy=0;" edge="1" parent="EH1okrl17HNzEjOL1Jwx-69" source="EH1okrl17HNzEjOL1Jwx-9" target="EH1okrl17HNzEjOL1Jwx-9">
          <mxGeometry width="50" height="50" as="geometry">
            <mxPoint x="140" y="151" as="sourcePoint" />
            <mxPoint x="140" y="10" as="targetPoint" />
          </mxGeometry>
        </mxCell>
        <mxCell id="EH1okrl17HNzEjOL1Jwx-27" value="" style="endArrow=none;html=1;entryX=0.25;entryY=0;entryDx=0;entryDy=0;exitX=0.25;exitY=1;exitDx=0;exitDy=0;" edge="1" parent="EH1okrl17HNzEjOL1Jwx-69">
          <mxGeometry width="50" height="50" as="geometry">
            <mxPoint x="98" y="141" as="sourcePoint" />
            <mxPoint x="98" as="targetPoint" />
          </mxGeometry>
        </mxCell>
        <mxCell id="EH1okrl17HNzEjOL1Jwx-28" value="" style="endArrow=none;html=1;entryX=0.25;entryY=0;entryDx=0;entryDy=0;exitX=0.25;exitY=1;exitDx=0;exitDy=0;" edge="1" parent="EH1okrl17HNzEjOL1Jwx-69">
          <mxGeometry width="50" height="50" as="geometry">
            <mxPoint x="36" y="141" as="sourcePoint" />
            <mxPoint x="36" as="targetPoint" />
          </mxGeometry>
        </mxCell>
        <mxCell id="EH1okrl17HNzEjOL1Jwx-31" value="" style="endArrow=none;html=1;entryX=0.25;entryY=0;entryDx=0;entryDy=0;exitX=0.25;exitY=1;exitDx=0;exitDy=0;" edge="1" parent="EH1okrl17HNzEjOL1Jwx-69">
          <mxGeometry width="50" height="50" as="geometry">
            <mxPoint x="160" y="141" as="sourcePoint" />
            <mxPoint x="160" as="targetPoint" />
          </mxGeometry>
        </mxCell>
        <mxCell id="EH1okrl17HNzEjOL1Jwx-32" value="" style="endArrow=none;html=1;entryX=0.25;entryY=0;entryDx=0;entryDy=0;exitX=0.25;exitY=1;exitDx=0;exitDy=0;" edge="1" parent="EH1okrl17HNzEjOL1Jwx-69">
          <mxGeometry width="50" height="50" as="geometry">
            <mxPoint x="221.71000000000004" y="141" as="sourcePoint" />
            <mxPoint x="221.71000000000004" as="targetPoint" />
          </mxGeometry>
        </mxCell>
        <mxCell id="EH1okrl17HNzEjOL1Jwx-33" value="$zero" style="text;html=1;strokeColor=none;fillColor=none;align=center;verticalAlign=middle;whiteSpace=wrap;rounded=0;fontSize=9;" vertex="1" parent="EH1okrl17HNzEjOL1Jwx-69">
          <mxGeometry y="6" width="40" height="20" as="geometry" />
        </mxCell>
        <mxCell id="EH1okrl17HNzEjOL1Jwx-34" value="&lt;font style=&quot;font-size: 12px&quot;&gt;$at&lt;/font&gt;" style="text;html=1;strokeColor=none;fillColor=none;align=center;verticalAlign=middle;whiteSpace=wrap;rounded=0;fontSize=9;" vertex="1" parent="EH1okrl17HNzEjOL1Jwx-69">
          <mxGeometry x="32" y="6" width="40" height="20" as="geometry" />
        </mxCell>
        <mxCell id="EH1okrl17HNzEjOL1Jwx-35" value="&lt;font style=&quot;font-size: 12px&quot;&gt;$v0&lt;/font&gt;" style="text;html=1;align=center;verticalAlign=middle;whiteSpace=wrap;rounded=0;fontSize=9;fontColor=#97D077;" vertex="1" parent="EH1okrl17HNzEjOL1Jwx-69">
          <mxGeometry x="61" y="6" width="40" height="20" as="geometry" />
        </mxCell>
        <mxCell id="EH1okrl17HNzEjOL1Jwx-36" value="&lt;font style=&quot;font-size: 12px&quot;&gt;$v1&lt;/font&gt;" style="text;html=1;align=center;verticalAlign=middle;whiteSpace=wrap;rounded=0;fontSize=9;fontColor=#97D077;" vertex="1" parent="EH1okrl17HNzEjOL1Jwx-69">
          <mxGeometry x="96" y="6" width="40" height="20" as="geometry" />
        </mxCell>
        <mxCell id="EH1okrl17HNzEjOL1Jwx-37" value="&lt;span style=&quot;font-size: 12px&quot;&gt;$a0&lt;/span&gt;" style="text;html=1;strokeColor=none;fillColor=none;align=center;verticalAlign=middle;whiteSpace=wrap;rounded=0;fontSize=9;fontColor=#7EA6E0;" vertex="1" parent="EH1okrl17HNzEjOL1Jwx-69">
          <mxGeometry x="126" y="6" width="40" height="20" as="geometry" />
        </mxCell>
        <mxCell id="EH1okrl17HNzEjOL1Jwx-38" value="&lt;span style=&quot;font-size: 12px&quot;&gt;$a1&lt;/span&gt;" style="text;html=1;strokeColor=none;fillColor=none;align=center;verticalAlign=middle;whiteSpace=wrap;rounded=0;fontSize=9;fontColor=#7EA6E0;" vertex="1" parent="EH1okrl17HNzEjOL1Jwx-69">
          <mxGeometry x="158" y="6" width="40" height="20" as="geometry" />
        </mxCell>
        <mxCell id="EH1okrl17HNzEjOL1Jwx-39" value="&lt;span style=&quot;font-size: 12px&quot;&gt;$a2&lt;/span&gt;" style="text;html=1;strokeColor=none;fillColor=none;align=center;verticalAlign=middle;whiteSpace=wrap;rounded=0;fontSize=9;fontColor=#7EA6E0;" vertex="1" parent="EH1okrl17HNzEjOL1Jwx-69">
          <mxGeometry x="186.5" y="6" width="40" height="20" as="geometry" />
        </mxCell>
        <mxCell id="EH1okrl17HNzEjOL1Jwx-40" value="&lt;span style=&quot;font-size: 12px&quot;&gt;$a3&lt;/span&gt;" style="text;html=1;strokeColor=none;fillColor=none;align=center;verticalAlign=middle;whiteSpace=wrap;rounded=0;fontSize=9;fontColor=#7EA6E0;" vertex="1" parent="EH1okrl17HNzEjOL1Jwx-69">
          <mxGeometry x="218" y="6" width="40" height="20" as="geometry" />
        </mxCell>
        <mxCell id="EH1okrl17HNzEjOL1Jwx-41" value="&lt;span style=&quot;font-size: 12px&quot;&gt;$t0&lt;/span&gt;" style="text;html=1;strokeColor=none;fillColor=none;align=center;verticalAlign=middle;whiteSpace=wrap;rounded=0;fontSize=9;fontColor=#A680B8;" vertex="1" parent="EH1okrl17HNzEjOL1Jwx-69">
          <mxGeometry y="41" width="40" height="20" as="geometry" />
        </mxCell>
        <mxCell id="EH1okrl17HNzEjOL1Jwx-42" value="&lt;font style=&quot;font-size: 12px&quot;&gt;$t1&lt;/font&gt;" style="text;html=1;strokeColor=none;fillColor=none;align=center;verticalAlign=middle;whiteSpace=wrap;rounded=0;fontSize=9;fontColor=#A680B8;" vertex="1" parent="EH1okrl17HNzEjOL1Jwx-69">
          <mxGeometry x="32" y="41" width="40" height="20" as="geometry" />
        </mxCell>
        <mxCell id="EH1okrl17HNzEjOL1Jwx-43" value="&lt;font style=&quot;font-size: 12px&quot;&gt;$t2&lt;/font&gt;" style="text;html=1;strokeColor=none;fillColor=none;align=center;verticalAlign=middle;whiteSpace=wrap;rounded=0;fontSize=9;fontColor=#A680B8;" vertex="1" parent="EH1okrl17HNzEjOL1Jwx-69">
          <mxGeometry x="61" y="41" width="40" height="20" as="geometry" />
        </mxCell>
        <mxCell id="EH1okrl17HNzEjOL1Jwx-44" value="&lt;font style=&quot;font-size: 12px&quot;&gt;$t3&lt;/font&gt;" style="text;html=1;strokeColor=none;fillColor=none;align=center;verticalAlign=middle;whiteSpace=wrap;rounded=0;fontSize=9;fontColor=#A680B8;" vertex="1" parent="EH1okrl17HNzEjOL1Jwx-69">
          <mxGeometry x="96" y="41" width="40" height="20" as="geometry" />
        </mxCell>
        <mxCell id="EH1okrl17HNzEjOL1Jwx-45" value="&lt;span style=&quot;font-size: 12px&quot;&gt;$t4&lt;/span&gt;" style="text;html=1;strokeColor=none;fillColor=none;align=center;verticalAlign=middle;whiteSpace=wrap;rounded=0;fontSize=9;fontColor=#A680B8;" vertex="1" parent="EH1okrl17HNzEjOL1Jwx-69">
          <mxGeometry x="126" y="41" width="40" height="20" as="geometry" />
        </mxCell>
        <mxCell id="EH1okrl17HNzEjOL1Jwx-46" value="&lt;span style=&quot;font-size: 12px&quot;&gt;$t5&lt;/span&gt;" style="text;html=1;strokeColor=none;fillColor=none;align=center;verticalAlign=middle;whiteSpace=wrap;rounded=0;fontSize=9;fontColor=#A680B8;" vertex="1" parent="EH1okrl17HNzEjOL1Jwx-69">
          <mxGeometry x="158" y="41" width="40" height="20" as="geometry" />
        </mxCell>
        <mxCell id="EH1okrl17HNzEjOL1Jwx-47" value="&lt;span style=&quot;font-size: 12px&quot;&gt;$t6&lt;/span&gt;" style="text;html=1;strokeColor=none;fillColor=none;align=center;verticalAlign=middle;whiteSpace=wrap;rounded=0;fontSize=9;fontColor=#A680B8;" vertex="1" parent="EH1okrl17HNzEjOL1Jwx-69">
          <mxGeometry x="186.5" y="41" width="40" height="20" as="geometry" />
        </mxCell>
        <mxCell id="EH1okrl17HNzEjOL1Jwx-48" value="&lt;span style=&quot;font-size: 12px&quot;&gt;$t7&lt;/span&gt;" style="text;html=1;strokeColor=none;fillColor=none;align=center;verticalAlign=middle;whiteSpace=wrap;rounded=0;fontSize=9;fontColor=#A680B8;" vertex="1" parent="EH1okrl17HNzEjOL1Jwx-69">
          <mxGeometry x="218" y="41" width="40" height="20" as="geometry" />
        </mxCell>
        <mxCell id="EH1okrl17HNzEjOL1Jwx-49" value="&lt;span style=&quot;font-size: 12px&quot;&gt;$s0&lt;/span&gt;" style="text;html=1;strokeColor=none;fillColor=none;align=center;verticalAlign=middle;whiteSpace=wrap;rounded=0;fontSize=9;fontColor=#EA6B66;" vertex="1" parent="EH1okrl17HNzEjOL1Jwx-69">
          <mxGeometry x="1" y="78" width="40" height="20" as="geometry" />
        </mxCell>
        <mxCell id="EH1okrl17HNzEjOL1Jwx-50" value="&lt;font style=&quot;font-size: 12px&quot;&gt;$s1&lt;/font&gt;" style="text;html=1;strokeColor=none;fillColor=none;align=center;verticalAlign=middle;whiteSpace=wrap;rounded=0;fontSize=9;fontColor=#EA6B66;" vertex="1" parent="EH1okrl17HNzEjOL1Jwx-69">
          <mxGeometry x="33" y="78" width="39" height="20" as="geometry" />
        </mxCell>
        <mxCell id="EH1okrl17HNzEjOL1Jwx-51" value="&lt;font style=&quot;font-size: 12px&quot;&gt;$s2&lt;/font&gt;" style="text;html=1;strokeColor=none;fillColor=none;align=center;verticalAlign=middle;whiteSpace=wrap;rounded=0;fontSize=9;fontColor=#EA6B66;" vertex="1" parent="EH1okrl17HNzEjOL1Jwx-69">
          <mxGeometry x="62" y="78" width="40" height="20" as="geometry" />
        </mxCell>
        <mxCell id="EH1okrl17HNzEjOL1Jwx-52" value="&lt;font style=&quot;font-size: 12px&quot;&gt;$s3&lt;/font&gt;" style="text;html=1;strokeColor=none;fillColor=none;align=center;verticalAlign=middle;whiteSpace=wrap;rounded=0;fontSize=9;fontColor=#EA6B66;" vertex="1" parent="EH1okrl17HNzEjOL1Jwx-69">
          <mxGeometry x="97" y="78" width="40" height="20" as="geometry" />
        </mxCell>
        <mxCell id="EH1okrl17HNzEjOL1Jwx-53" value="&lt;span style=&quot;font-size: 12px&quot;&gt;$s4&lt;/span&gt;" style="text;html=1;strokeColor=none;fillColor=none;align=center;verticalAlign=middle;whiteSpace=wrap;rounded=0;fontSize=9;fontColor=#EA6B66;" vertex="1" parent="EH1okrl17HNzEjOL1Jwx-69">
          <mxGeometry x="127" y="78" width="40" height="20" as="geometry" />
        </mxCell>
        <mxCell id="EH1okrl17HNzEjOL1Jwx-54" value="&lt;span style=&quot;font-size: 12px&quot;&gt;$s5&lt;/span&gt;" style="text;html=1;strokeColor=none;fillColor=none;align=center;verticalAlign=middle;whiteSpace=wrap;rounded=0;fontSize=9;fontColor=#EA6B66;" vertex="1" parent="EH1okrl17HNzEjOL1Jwx-69">
          <mxGeometry x="157" y="78" width="44" height="20" as="geometry" />
        </mxCell>
        <mxCell id="EH1okrl17HNzEjOL1Jwx-55" value="&lt;span style=&quot;font-size: 12px&quot;&gt;$s6&lt;/span&gt;" style="text;html=1;strokeColor=none;fillColor=none;align=center;verticalAlign=middle;whiteSpace=wrap;rounded=0;fontSize=9;fontColor=#EA6B66;" vertex="1" parent="EH1okrl17HNzEjOL1Jwx-69">
          <mxGeometry x="187.5" y="78" width="40" height="20" as="geometry" />
        </mxCell>
        <mxCell id="EH1okrl17HNzEjOL1Jwx-56" value="&lt;span style=&quot;font-size: 12px&quot;&gt;$s7&lt;/span&gt;" style="text;html=1;strokeColor=none;fillColor=none;align=center;verticalAlign=middle;whiteSpace=wrap;rounded=0;fontSize=9;fontColor=#EA6B66;" vertex="1" parent="EH1okrl17HNzEjOL1Jwx-69">
          <mxGeometry x="219" y="78" width="40" height="20" as="geometry" />
        </mxCell>
        <mxCell id="EH1okrl17HNzEjOL1Jwx-57" value="&lt;span style=&quot;font-size: 12px&quot;&gt;$t8&lt;/span&gt;" style="text;html=1;strokeColor=none;fillColor=none;align=center;verticalAlign=middle;whiteSpace=wrap;rounded=0;fontSize=9;fontColor=#A680B8;" vertex="1" parent="EH1okrl17HNzEjOL1Jwx-69">
          <mxGeometry y="112" width="40" height="20" as="geometry" />
        </mxCell>
        <mxCell id="EH1okrl17HNzEjOL1Jwx-58" value="&lt;font style=&quot;font-size: 12px&quot;&gt;$t9&lt;/font&gt;" style="text;html=1;strokeColor=none;fillColor=none;align=center;verticalAlign=middle;whiteSpace=wrap;rounded=0;fontSize=9;fontColor=#A680B8;" vertex="1" parent="EH1okrl17HNzEjOL1Jwx-69">
          <mxGeometry x="32" y="112" width="39" height="20" as="geometry" />
        </mxCell>
        <mxCell id="EH1okrl17HNzEjOL1Jwx-59" value="&lt;font style=&quot;font-size: 12px&quot;&gt;$k0&lt;/font&gt;" style="text;html=1;strokeColor=none;fillColor=none;align=center;verticalAlign=middle;whiteSpace=wrap;rounded=0;fontSize=9;fontColor=#67AB9F;" vertex="1" parent="EH1okrl17HNzEjOL1Jwx-69">
          <mxGeometry x="61" y="112" width="40" height="20" as="geometry" />
        </mxCell>
        <mxCell id="EH1okrl17HNzEjOL1Jwx-60" value="&lt;font style=&quot;font-size: 12px&quot;&gt;$k1&lt;/font&gt;" style="text;html=1;strokeColor=none;fillColor=none;align=center;verticalAlign=middle;whiteSpace=wrap;rounded=0;fontSize=9;fontColor=#67AB9F;" vertex="1" parent="EH1okrl17HNzEjOL1Jwx-69">
          <mxGeometry x="96" y="112" width="40" height="20" as="geometry" />
        </mxCell>
        <mxCell id="EH1okrl17HNzEjOL1Jwx-61" value="&lt;span style=&quot;font-size: 12px&quot;&gt;$gp&lt;/span&gt;" style="text;html=1;strokeColor=none;fillColor=none;align=center;verticalAlign=middle;whiteSpace=wrap;rounded=0;fontSize=9;" vertex="1" parent="EH1okrl17HNzEjOL1Jwx-69">
          <mxGeometry x="126" y="112" width="40" height="20" as="geometry" />
        </mxCell>
        <mxCell id="EH1okrl17HNzEjOL1Jwx-62" value="&lt;span style=&quot;font-size: 12px&quot;&gt;$sp&lt;/span&gt;" style="text;html=1;strokeColor=none;fillColor=none;align=center;verticalAlign=middle;whiteSpace=wrap;rounded=0;fontSize=9;" vertex="1" parent="EH1okrl17HNzEjOL1Jwx-69">
          <mxGeometry x="158" y="112" width="40" height="20" as="geometry" />
        </mxCell>
        <mxCell id="EH1okrl17HNzEjOL1Jwx-63" value="&lt;span style=&quot;font-size: 12px&quot;&gt;$fp&lt;/span&gt;" style="text;html=1;strokeColor=none;fillColor=none;align=center;verticalAlign=middle;whiteSpace=wrap;rounded=0;fontSize=9;" vertex="1" parent="EH1okrl17HNzEjOL1Jwx-69">
          <mxGeometry x="186.5" y="112" width="40" height="20" as="geometry" />
        </mxCell>
        <mxCell id="EH1okrl17HNzEjOL1Jwx-64" value="&lt;span style=&quot;font-size: 12px&quot;&gt;$ra&lt;/span&gt;" style="text;html=1;strokeColor=none;fillColor=none;align=center;verticalAlign=middle;whiteSpace=wrap;rounded=0;fontSize=9;" vertex="1" parent="EH1okrl17HNzEjOL1Jwx-69">
          <mxGeometry x="218" y="112" width="40" height="20" as="geometry" />
        </mxCell>
      </root>
    </mxGraphModel>
  </diagram>
</mxfile>
